<svg width="14" height="23" viewBox="0 0 14 23" fill="none" xmlns="http://www.w3.org/2000/svg">
<path d="M0.535359 0.506265C0.19257 0.830524 8.9815e-07 1.27026 8.78108e-07 1.72876C8.58066e-07 2.18726 0.19257 2.62699 0.535359 2.95125L9.58641 11.5104L0.535359 20.0696C0.202284 20.3957 0.0179816 20.8325 0.0221482 21.2859C0.0263138 21.7393 0.218615 22.173 0.557632 22.4936C0.896649 22.8141 1.35526 22.996 1.83468 22.9999C2.31411 23.0039 2.77599 22.8296 3.12085 22.5146L13.4646 12.7329C13.8074 12.4087 14 11.9689 14 11.5104C14 11.0519 13.8074 10.6122 13.4646 10.2879L3.12085 0.506265C2.77796 0.182103 2.31296 -5.10857e-07 1.8281 -5.3205e-07C1.34325 -5.53244e-07 0.878253 0.182103 0.535359 0.506265Z" fill="black"/>
</svg>
