<svg width="14" height="24" viewBox="0 0 14 24" fill="none" xmlns="http://www.w3.org/2000/svg">
<path d="M13.4646 22.9937C13.8074 22.6695 14 22.2297 14 21.7712C14 21.3127 13.8074 20.873 13.4646 20.5487L4.41359 11.9896L13.4646 3.43037C13.7977 3.10426 13.982 2.66747 13.9778 2.2141C13.9737 1.76073 13.7814 1.32704 13.4424 1.00645C13.1033 0.685853 12.6447 0.504005 12.1653 0.500066C11.6859 0.496126 11.224 0.670412 10.8791 0.985387L0.535358 10.7671C0.192568 11.0913 -5.23179e-07 11.5311 -5.03137e-07 11.9896C-4.83095e-07 12.4481 0.192568 12.8878 0.535358 13.2121L10.8792 22.9937C11.222 23.3179 11.687 23.5 12.1719 23.5C12.6567 23.5 13.1217 23.3179 13.4646 22.9937Z" fill="#7387EA"/>
</svg>
