<svg width="32" height="30" viewBox="0 0 32 30" fill="none" xmlns="http://www.w3.org/2000/svg">
<path d="M17.9646 0.674819C17.4029 0.237456 16.7115 0 15.9998 0C15.2882 0 14.5968 0.237456 14.0351 0.674819L0.620953 11.1161C-0.582222 12.0561 0.0801643 13.9858 1.60493 13.9858H3.2001V26.7972C3.2001 27.6466 3.53724 28.4613 4.13734 29.0619C4.73744 29.6626 5.55136 30 6.40004 30H12.7999V20.3915C12.7999 19.542 13.137 18.7274 13.7371 18.1267C14.3373 17.5261 15.1512 17.1887 15.9998 17.1887C16.8485 17.1887 17.6624 17.5261 18.2625 18.1267C18.8626 18.7274 19.1998 19.542 19.1998 20.3915V30H25.5996C26.4483 30 27.2622 29.6626 27.8623 29.0619C28.4624 28.4613 28.7996 27.6466 28.7996 26.7972V13.9858H30.3947C31.9179 13.9858 32.5835 12.0561 31.3787 11.1177L17.9646 0.674819Z" fill="white"/>
</svg>
